<svg width="295" height="300" viewBox="0 0 295 300" fill="none" xmlns="http://www.w3.org/2000/svg">
<g clip-path="url(#clip0_1839_594)">
<path fill-rule="evenodd" clip-rule="evenodd" d="M36.5176 236.254L201.977 207.079C203.167 206.87 203.931 205.545 203.678 204.122L174.653 39.5112C174.4 38.0862 173.232 37.1033 172.044 37.3144L6.58443 66.4875C5.39231 66.6987 4.63443 68.019 4.88509 69.446L33.9103 234.057C34.161 235.478 35.3274 236.465 36.5176 236.254Z" stroke="#B3B3FC" stroke-width="1.9" stroke-linecap="round" stroke-linejoin="round" stroke-dasharray="11.38 11.38"/>
<path fill-rule="evenodd" clip-rule="evenodd" d="M73.3131 255.039L295.426 294.199C297.02 294.481 298.591 293.161 298.929 291.251L337.892 70.2789C338.229 68.3644 337.205 66.59 335.61 66.3098L113.498 27.146C111.899 26.8637 110.336 28.1821 109.998 30.0966L71.0334 251.07C70.6979 252.979 71.7144 254.757 73.3131 255.037V255.039Z" fill="white" stroke="#B3B3FC" stroke-width="1.9" stroke-linecap="round" stroke-linejoin="round" stroke-dasharray="11.38 11.38"/>
<path fill-rule="evenodd" clip-rule="evenodd" d="M184.024 133.974C187.606 132.48 192.945 132.547 196.894 135.302C201.544 138.545 203.05 144.934 200.735 151.095C198.248 157.727 191.449 160.802 185.498 158.56C179.301 156.227 176.283 149.132 177.903 142.133C178.732 138.555 180.779 135.324 184.024 133.974Z" fill="#8080F1"/>
<path fill-rule="evenodd" clip-rule="evenodd" d="M147.309 191.309C154.636 182.652 162.715 174.66 171.452 167.428C172.774 166.332 174.72 166.875 175.648 168.17L188.062 185.485C188.733 186.42 192.529 193.38 193.705 193.354C195.051 193.326 200.889 185.925 201.837 184.907L230.813 153.711C232.51 151.883 234.922 152.447 235.94 154.614C243.719 171.213 246.409 189.939 249.942 208.688L263.989 129.03C263.989 129.03 192.402 116.132 160.361 110.378C155.699 138.002 150.151 163.451 147.309 191.309ZM137.516 199.391C137.496 199.18 147.661 135.754 153.055 104.24C153.323 102.685 154.379 101.891 155.532 101.734C156.11 101.41 156.785 101.305 157.434 101.438L264.176 120.602C264.31 120.624 264.425 120.671 264.547 120.711L270.587 121.776C272.466 122.106 273.152 123.786 272.912 125.325C272.929 125.598 272.914 125.871 272.866 126.14L255.665 223.691C255.431 225.024 253.179 224.469 251.882 224.244C227.483 220.003 177.882 212.013 138.465 204.306C136.545 203.619 137.51 199.397 137.516 199.391Z" fill="#8080F1"/>
<path fill-rule="evenodd" clip-rule="evenodd" d="M71.1758 25.8059C62.5547 22.3816 63.0461 2.18092 64.0053 0C67.5047 2.79868 71.1758 25.8059 71.1758 25.8059Z" fill="#C7EBFF"/>
<path fill-rule="evenodd" clip-rule="evenodd" d="M55.0625 16.1013C57.5375 9.90389 76.7732 9.08679 77.993 9.93547C79.2107 10.7842 60.5119 17.4986 55.0625 16.1013Z" fill="#C7EBFF"/>
<path fill-rule="evenodd" clip-rule="evenodd" d="M43.5879 287.177C34.3115 287.094 27.4845 268.072 27.593 265.695C31.8641 267.045 43.5879 287.177 43.5879 287.177Z" fill="#C7EBFF"/>
<path fill-rule="evenodd" clip-rule="evenodd" d="M25.0608 283.938C25.1318 277.265 42.7787 269.564 44.2215 269.917C45.6623 270.268 30.6464 283.277 25.0608 283.938Z" fill="#C7EBFF"/>
</g>
<defs>
<clipPath id="clip0_1839_594">
<rect width="357.24" height="300" fill="white" transform="matrix(-1 0 0 1 357.24 0)"/>
</clipPath>
</defs>
</svg>
