<svg width="201" height="150" viewBox="0 0 201 150" fill="none" xmlns="http://www.w3.org/2000/svg">
<path d="M166.208 1.49797L4.77032 52.1936C2.13575 53.021 0.670682 55.8274 1.49801 58.462L28.4622 144.328C29.2895 146.962 32.0959 148.427 34.7305 147.6L196.168 96.9044C198.802 96.0771 200.267 93.2706 199.44 90.6361L172.476 4.77029C171.649 2.13571 168.842 0.670645 166.208 1.49797Z" fill="white"/>
<path d="M45.8575 129.866L176.901 88.7151C179.535 87.8877 181 85.0813 180.173 82.4467L161.342 22.4823C160.515 19.8477 157.709 18.3827 155.074 19.21L24.0311 60.361C21.3965 61.1884 19.9314 63.9948 20.7588 66.6294L39.5892 126.594C40.4165 129.228 43.223 130.693 45.8575 129.866Z" fill="#EFF0F7"/>
<path d="M176.221 88.9744L149.453 62.0552C149.174 61.8187 148.839 61.6568 148.48 61.5845C148.122 61.5121 147.75 61.5317 147.401 61.6413C147.052 61.751 146.736 61.9472 146.483 62.2116C146.23 62.4761 146.048 62.8003 145.954 63.154L139.825 86.3008L126.802 79.0174C126.502 78.8427 126.165 78.7425 125.818 78.725C125.472 78.7076 125.126 78.7735 124.81 78.9172C124.495 79.061 124.218 79.2783 124.003 79.5511C123.789 79.8238 123.643 80.144 123.578 80.4848L118.307 107.161L176.221 88.9744Z" fill="#8992FA"/>
<path d="M122.067 47.5675C122.502 48.9372 123.333 50.1473 124.455 51.0451C125.577 51.9429 126.94 52.488 128.371 52.6117C129.803 52.7354 131.239 52.4321 132.498 51.7401C133.758 51.048 134.783 49.9983 135.447 48.7235C136.11 47.4487 136.38 46.006 136.224 44.5776C136.067 43.1492 135.491 41.7992 134.568 40.698C133.645 39.5969 132.416 38.794 131.037 38.3908C129.658 37.9876 128.19 38.0022 126.819 38.4327C125.906 38.7193 125.059 39.1832 124.326 39.7977C123.593 40.4122 122.989 41.1654 122.547 42.014C122.106 42.8626 121.836 43.79 121.754 44.743C121.672 45.6959 121.778 46.6558 122.067 47.5675Z" fill="#8992FA"/>
<path d="M71.2256 66.1712C71.8116 66.806 72.6102 66.669 73.401 66.5798C76.2472 66.0258 79.0464 65.2533 81.7739 64.269L85.5253 63.0909C86.2714 62.8566 87.061 62.8177 87.8411 62.8735C89.3373 62.9807 90.8439 62.8287 92.2938 62.4212C94.3642 61.771 95.4649 60.0606 97.3798 59.2773C98.5392 58.9132 102.045 58.1989 100.332 56.0755C98.4038 53.7013 92.3526 56.3067 89.9718 56.2583C88.8357 56.2529 87.7015 56.3502 86.5829 56.5491C84.9858 56.8232 85.2561 56.67 83.623 56.2503C82.9933 56.0295 82.3334 55.9068 81.6664 55.8866C80.2678 55.8345 78.9051 56.336 77.8739 57.2823C76.6817 58.339 76.4536 60.0029 75.155 60.8656C73.8565 61.7283 68.8412 63.5762 71.2256 66.1712Z" fill="#8992FA"/>
<path d="M54.9299 77.9532C57.5471 77.9019 60.1297 77.3458 62.536 76.3154C64.0276 75.8881 65.366 75.0519 66.4021 73.906C66.6283 73.6559 66.8296 73.3729 66.8987 73.0428C66.9172 72.9545 66.9294 72.8648 66.9353 72.7743C66.952 72.5145 66.9154 72.254 66.8277 72.0088C66.7401 71.7637 66.6033 71.539 66.4256 71.3487C66.248 71.1583 66.0333 71.0063 65.7948 70.902C65.3677 70.7166 64.8994 70.6471 64.4369 70.7005V70.7005C63.5541 70.8024 62.6659 71.1013 61.7772 71.1029C60.6882 71.1049 59.6059 71.3021 58.5823 71.6875C58.2561 71.8103 57.9574 71.9932 57.6643 72.182C57.4194 72.3397 57.1675 72.4862 56.9095 72.621C56.4256 72.8739 55.8855 72.9967 55.3396 73.0088C54.9803 73.0168 54.6208 73.0138 54.2615 72.9997C53.7335 73.0198 53.2175 73.1523 52.7473 73.3866C52.508 73.5059 52.2909 73.6711 52.111 73.8689C50.2817 75.8819 52.6822 77.9205 54.9299 77.9532Z" fill="#8992FA"/>
<path d="M101.821 112.315L80.2271 91.9369C80.0532 91.7792 79.8411 91.6697 79.6118 91.6193C79.3825 91.569 79.144 91.5794 78.92 91.6498C78.696 91.7201 78.4944 91.8478 78.335 92.0203C78.1757 92.1927 78.0642 92.4038 78.0117 92.6326L72.9057 113.024L66.2826 107.507C66.0983 107.354 65.8767 107.254 65.6405 107.215C65.4043 107.177 65.1621 107.202 64.9389 107.288C64.7157 107.374 64.5196 107.519 64.3707 107.706C64.2219 107.893 64.1257 108.117 64.092 108.354L61.7901 124.999L41.8846 101.885C41.7143 101.678 41.486 101.526 41.2289 101.449C40.9718 101.373 40.6977 101.375 40.4417 101.455C40.1858 101.535 39.9597 101.691 39.7926 101.9C39.6254 102.11 39.5248 102.365 39.5036 102.633L38.7509 123.704L41.1566 131.365L101.821 112.315Z" fill="#8992FA"/>
<path d="M47.2382 124.588V124.588C46.4035 124.85 45.5143 124.386 45.2522 123.551V123.551C45.228 123.474 45.2354 123.391 45.2727 123.319C45.31 123.248 45.3741 123.194 45.451 123.17C45.5298 123.145 45.6152 123.151 45.6898 123.187C45.7644 123.222 45.8226 123.285 45.8526 123.362V123.362C46.0106 123.865 46.5465 124.145 47.0497 123.987V123.987C47.1266 123.963 47.2099 123.97 47.2813 124.008C47.3527 124.045 47.4064 124.109 47.4306 124.186C47.4555 124.265 47.4495 124.35 47.4138 124.425C47.3781 124.499 47.3153 124.558 47.2382 124.588Z" fill="white"/>
<path d="M170.555 85.8683C170.466 85.9172 170.36 85.9239 170.263 85.9542L168.131 86.6237C168.051 86.6431 167.966 86.6313 167.894 86.5905C167.822 86.5497 167.769 86.4831 167.744 86.4041C167.72 86.3272 167.727 86.2439 167.765 86.1725C167.802 86.1011 167.866 86.0474 167.943 86.0232L170.324 85.2755C170.401 85.2514 170.484 85.2588 170.555 85.2961C170.627 85.3334 170.681 85.3975 170.705 85.4744C170.722 85.5226 170.727 85.5742 170.721 85.6249C170.714 85.6757 170.696 85.7242 170.667 85.7665C170.638 85.8087 170.6 85.8436 170.555 85.8683V85.8683ZM165.797 87.3693C165.716 87.4053 165.625 87.4109 165.54 87.4374L163.307 88.1386C163.266 88.1514 163.224 88.156 163.181 88.1523C163.138 88.1485 163.097 88.1364 163.059 88.1166C163.021 88.0968 162.988 88.0697 162.96 88.037C162.933 88.0042 162.912 87.9663 162.899 87.9255C162.88 87.8452 162.892 87.7604 162.932 87.6884C162.973 87.6165 163.04 87.5627 163.119 87.5381L165.304 86.8519C165.419 86.8157 165.522 86.7361 165.642 86.7181V86.7181C165.702 86.7089 165.765 86.7185 165.82 86.7455C165.875 86.7725 165.921 86.8158 165.952 86.8694C165.96 86.884 165.967 86.8991 165.972 86.9146C166.003 86.9982 166.002 87.0936 165.973 87.1777V87.1777C165.958 87.22 165.935 87.2588 165.905 87.2918C165.875 87.3247 165.838 87.3511 165.797 87.3693V87.3693ZM160.926 88.8863L158.566 89.6275C158.484 89.6533 158.394 89.6454 158.318 89.6055C158.241 89.5655 158.184 89.4968 158.158 89.4144C158.138 89.3341 158.15 89.2493 158.191 89.1773C158.232 89.1054 158.298 89.0517 158.377 89.027L160.738 88.2858C160.816 88.2609 160.902 88.2669 160.976 88.3026C161.051 88.3383 161.109 88.4011 161.139 88.4782C161.165 88.5606 161.157 88.6498 161.117 88.7263C161.077 88.8029 161.009 88.8604 160.926 88.8863ZM156.185 90.3752L153.825 91.1164C153.742 91.1423 153.653 91.1343 153.576 91.0944C153.5 91.0544 153.442 90.9857 153.416 90.9033C153.397 90.823 153.409 90.7382 153.45 90.6663C153.49 90.5943 153.557 90.5406 153.636 90.516L155.996 89.7748C156.075 89.7498 156.161 89.7558 156.235 89.7915C156.31 89.8272 156.368 89.89 156.398 89.9671C156.424 90.0495 156.416 90.1387 156.376 90.2153C156.336 90.2918 156.267 90.3493 156.185 90.3752ZM151.444 91.8641L149.083 92.6053C149.003 92.6248 148.918 92.6129 148.846 92.5721C148.774 92.5313 148.72 92.4647 148.696 92.3858C148.672 92.3089 148.679 92.2256 148.716 92.1541C148.754 92.0827 148.818 92.029 148.895 92.0049L151.255 91.2637C151.334 91.2387 151.419 91.2447 151.494 91.2804C151.568 91.3162 151.627 91.3789 151.657 91.456C151.682 91.5384 151.675 91.6276 151.635 91.7042C151.595 91.7807 151.526 91.8382 151.444 91.8641ZM146.723 93.3465L144.342 94.0942C144.261 94.1137 144.177 94.1018 144.105 94.061C144.033 94.0203 143.979 93.9536 143.954 93.8747C143.93 93.7978 143.938 93.7145 143.975 93.643C144.012 93.5716 144.076 93.5179 144.153 93.4938L146.534 92.7461C146.611 92.7219 146.695 92.7293 146.766 92.7666C146.837 92.8039 146.891 92.868 146.915 92.9449C146.94 93.0238 146.934 93.1092 146.898 93.1837C146.863 93.2583 146.8 93.3165 146.723 93.3465ZM141.982 94.8354L139.601 95.5831C139.52 95.6026 139.435 95.5907 139.363 95.5499C139.291 95.5092 139.238 95.4425 139.213 95.3636C139.189 95.2867 139.196 95.2034 139.234 95.132C139.271 95.0605 139.335 95.0068 139.412 94.9827L141.793 94.235C141.87 94.2108 141.953 94.2182 142.025 94.2555C142.096 94.2928 142.15 94.3569 142.174 94.4338C142.199 94.5127 142.193 94.5981 142.157 94.6726C142.121 94.7472 142.059 94.8054 141.982 94.8354ZM137.24 96.3243L134.88 97.0655C134.798 97.0914 134.708 97.0835 134.632 97.0435C134.555 97.0036 134.498 96.9348 134.472 96.8525C134.452 96.7721 134.464 96.6873 134.505 96.6154C134.546 96.5434 134.612 96.4897 134.691 96.4651L137.052 95.7239C137.131 95.6989 137.216 95.7049 137.29 95.7407C137.365 95.7764 137.423 95.8391 137.453 95.9162C137.466 95.957 137.471 95.9999 137.467 96.0425C137.463 96.0851 137.451 96.1265 137.431 96.1644C137.411 96.2023 137.384 96.2359 137.352 96.2633C137.319 96.2908 137.281 96.3115 137.24 96.3243ZM132.499 97.8132L130.139 98.5544C130.056 98.5803 129.967 98.5724 129.89 98.5324C129.814 98.4925 129.756 98.4238 129.73 98.3414C129.711 98.261 129.723 98.1762 129.764 98.1043C129.804 98.0323 129.871 97.9786 129.95 97.954L132.31 97.2128C132.389 97.1878 132.475 97.1938 132.549 97.2296C132.624 97.2653 132.682 97.3281 132.712 97.4051C132.725 97.4459 132.729 97.4888 132.726 97.5314C132.722 97.574 132.71 97.6154 132.69 97.6533C132.67 97.6912 132.643 97.7248 132.61 97.7523C132.578 97.7797 132.54 97.8004 132.499 97.8132ZM127.758 99.3021L125.397 100.043C125.315 100.069 125.226 100.061 125.149 100.021C125.073 99.9814 125.015 99.9127 124.989 99.8303C124.97 99.7499 124.982 99.6651 125.022 99.5932C125.063 99.5212 125.13 99.4675 125.209 99.4429L127.569 98.7017C127.648 98.6767 127.733 98.6828 127.808 98.7185C127.882 98.7542 127.941 98.817 127.971 98.894C127.983 98.9348 127.988 98.9777 127.984 99.0203C127.98 99.0629 127.968 99.1043 127.949 99.1422C127.929 99.1801 127.902 99.2137 127.869 99.2412C127.836 99.2686 127.798 99.2893 127.758 99.3021ZM123.037 100.785L120.656 101.532C120.576 101.552 120.491 101.54 120.419 101.499C120.347 101.458 120.293 101.392 120.268 101.313C120.244 101.236 120.252 101.153 120.289 101.081C120.326 101.01 120.39 100.956 120.467 100.932L122.848 100.184C122.925 100.16 123.009 100.167 123.08 100.205C123.151 100.242 123.205 100.306 123.229 100.383C123.254 100.462 123.248 100.547 123.212 100.622C123.177 100.696 123.114 100.755 123.037 100.785ZM118.296 102.273L115.915 103.021C115.834 103.041 115.749 103.029 115.677 102.988C115.606 102.947 115.552 102.881 115.527 102.802C115.503 102.725 115.51 102.641 115.548 102.57C115.585 102.499 115.649 102.445 115.726 102.421L118.107 101.673C118.184 101.649 118.267 101.656 118.339 101.694C118.41 101.731 118.464 101.795 118.488 101.872C118.513 101.951 118.507 102.036 118.471 102.111C118.435 102.185 118.373 102.243 118.296 102.273ZM113.554 103.762L111.194 104.504C111.112 104.529 111.022 104.521 110.946 104.482C110.869 104.442 110.812 104.373 110.786 104.291C110.766 104.21 110.778 104.125 110.819 104.053C110.86 103.981 110.926 103.928 111.005 103.903L113.366 103.162C113.445 103.137 113.53 103.143 113.605 103.179C113.679 103.214 113.737 103.277 113.767 103.354C113.793 103.437 113.785 103.526 113.745 103.602C113.705 103.679 113.637 103.736 113.554 103.762ZM108.813 105.251L106.453 105.992C106.37 106.018 106.281 106.01 106.204 105.97C106.128 105.931 106.07 105.862 106.045 105.779C106.025 105.699 106.037 105.614 106.078 105.542C106.118 105.47 106.185 105.417 106.264 105.392L108.624 104.651C108.703 104.626 108.789 104.632 108.863 104.668C108.938 104.703 108.996 104.766 109.026 104.843C109.039 104.884 109.043 104.927 109.04 104.969C109.036 105.012 109.024 105.053 109.004 105.091C108.984 105.129 108.957 105.163 108.924 105.19C108.892 105.218 108.854 105.238 108.813 105.251ZM104.072 106.74L101.711 107.481C101.629 107.507 101.54 107.499 101.463 107.459C101.387 107.419 101.329 107.351 101.303 107.268C101.284 107.188 101.296 107.103 101.336 107.031C101.377 106.959 101.444 106.906 101.523 106.881L103.883 106.14C103.962 106.115 104.047 106.121 104.122 106.157C104.196 106.192 104.255 106.255 104.285 106.332C104.297 106.373 104.302 106.416 104.298 106.458C104.295 106.501 104.282 106.542 104.263 106.58C104.243 106.618 104.216 106.652 104.183 106.679C104.15 106.707 104.112 106.727 104.072 106.74ZM99.3303 108.229L96.9699 108.97C96.8896 108.99 96.8048 108.978 96.7328 108.937C96.6609 108.896 96.6072 108.83 96.5826 108.751C96.5584 108.674 96.5658 108.591 96.6031 108.519C96.6404 108.448 96.7045 108.394 96.7814 108.37L99.1417 107.629C99.2206 107.604 99.3059 107.61 99.3805 107.645C99.4551 107.681 99.5133 107.744 99.5433 107.821C99.5561 107.862 99.5608 107.905 99.557 107.947C99.5532 107.99 99.5411 108.031 99.5213 108.069C99.5015 108.107 99.4745 108.141 99.4417 108.168C99.4089 108.196 99.371 108.216 99.3303 108.229ZM94.6096 109.711L92.2286 110.459C92.1482 110.479 92.0634 110.467 91.9915 110.426C91.9195 110.385 91.8658 110.319 91.8412 110.24C91.8171 110.163 91.8245 110.079 91.8618 110.008C91.899 109.937 91.9632 109.883 92.04 109.859L94.4211 109.111C94.498 109.087 94.5813 109.094 94.6527 109.132C94.7241 109.169 94.7778 109.233 94.802 109.31C94.8269 109.389 94.8209 109.474 94.7852 109.549C94.7495 109.623 94.6867 109.681 94.6096 109.711ZM89.8683 111.2L87.4873 111.948C87.4069 111.968 87.3221 111.956 87.2502 111.915C87.1782 111.874 87.1245 111.808 87.0999 111.729C87.0757 111.652 87.0831 111.568 87.1204 111.497C87.1577 111.426 87.2218 111.372 87.2987 111.348L89.6797 110.6C89.7566 110.576 89.8399 110.583 89.9114 110.62C89.9828 110.658 90.0365 110.722 90.0606 110.799C90.0856 110.878 90.0796 110.963 90.0438 111.038C90.0081 111.112 89.9454 111.17 89.8683 111.2ZM85.127 112.689L82.7666 113.43C82.7259 113.443 82.6829 113.448 82.6404 113.444C82.5978 113.44 82.5564 113.428 82.5185 113.408C82.4806 113.389 82.447 113.362 82.4195 113.329C82.3921 113.296 82.3713 113.258 82.3585 113.217C82.3391 113.137 82.3509 113.052 82.3917 112.98C82.4325 112.908 82.4991 112.855 82.5781 112.83L84.9384 112.089C85.0173 112.064 85.1026 112.07 85.1772 112.106C85.2518 112.141 85.31 112.204 85.34 112.281C85.3528 112.322 85.3575 112.365 85.3537 112.407C85.3499 112.45 85.3378 112.491 85.318 112.529C85.2982 112.567 85.2712 112.601 85.2384 112.628C85.2056 112.656 85.1677 112.676 85.127 112.689ZM80.3856 114.178L78.0253 114.919C77.9429 114.945 77.8537 114.937 77.7771 114.897C77.7006 114.857 77.6431 114.789 77.6172 114.706C77.5977 114.626 77.6096 114.541 77.6504 114.469C77.6912 114.397 77.7578 114.344 77.8367 114.319L80.1971 113.578C80.2759 113.553 80.3613 113.559 80.4359 113.595C80.5105 113.63 80.5687 113.693 80.5987 113.77C80.6115 113.811 80.6161 113.854 80.6123 113.896C80.6085 113.939 80.5964 113.98 80.5766 114.018C80.5569 114.056 80.5298 114.09 80.497 114.117C80.4643 114.145 80.4264 114.165 80.3856 114.178ZM75.6443 115.667L73.284 116.408C73.2036 116.428 73.1188 116.416 73.0469 116.375C72.9749 116.334 72.9212 116.268 72.8966 116.189C72.8724 116.112 72.8798 116.029 72.9171 115.957C72.9544 115.886 73.0185 115.832 73.0954 115.808L75.4557 115.067C75.5346 115.042 75.62 115.048 75.6945 115.083C75.7691 115.119 75.8273 115.182 75.8573 115.259C75.8701 115.3 75.8748 115.343 75.871 115.385C75.8672 115.428 75.8551 115.469 75.8353 115.507C75.8155 115.545 75.7885 115.579 75.7557 115.606C75.7229 115.634 75.6851 115.654 75.6443 115.667ZM70.9237 117.15L68.5426 117.897C68.4622 117.917 68.3775 117.905 68.3055 117.864C68.2336 117.823 68.1798 117.757 68.1552 117.678C68.1311 117.601 68.1385 117.517 68.1758 117.446C68.2131 117.375 68.2772 117.321 68.3541 117.297L70.7351 116.549C70.812 116.525 70.8953 116.532 70.9667 116.57C71.0382 116.607 71.0918 116.671 71.116 116.748C71.1409 116.827 71.1349 116.912 71.0992 116.987C71.0635 117.061 71.0007 117.12 70.9237 117.15ZM66.1823 118.638L63.8013 119.386C63.7209 119.406 63.6361 119.394 63.5642 119.353C63.4922 119.312 63.4385 119.246 63.4139 119.167C63.3898 119.09 63.3971 119.006 63.4344 118.935C63.4717 118.864 63.5359 118.81 63.6127 118.786L65.9938 118.038C66.0706 118.014 66.154 118.021 66.2254 118.059C66.2968 118.096 66.3505 118.16 66.3747 118.237C66.3996 118.316 66.3936 118.401 66.3579 118.476C66.3222 118.55 66.2594 118.608 66.1823 118.638ZM61.441 120.127L59.0807 120.869C58.9983 120.894 58.909 120.886 58.8325 120.847C58.756 120.807 58.6984 120.738 58.6726 120.655C58.6531 120.575 58.665 120.49 58.7057 120.418C58.7465 120.346 58.8132 120.293 58.8921 120.268L61.2524 119.527C61.3313 119.502 61.4167 119.508 61.4912 119.544C61.5658 119.579 61.624 119.642 61.654 119.719C61.6668 119.76 61.6715 119.803 61.6677 119.846C61.6639 119.888 61.6518 119.93 61.632 119.967C61.6122 120.005 61.5852 120.039 61.5524 120.066C61.5196 120.094 61.4818 120.115 61.441 120.127ZM56.8311 121.448C56.7845 121.585 56.6298 121.638 56.4919 121.681L54.2565 122.383C54.1741 122.409 54.0849 122.401 54.0083 122.361C53.9318 122.321 53.8743 122.253 53.8484 122.17C53.829 122.09 53.8408 122.005 53.8816 121.933C53.9224 121.861 53.989 121.808 54.068 121.783L56.4283 121.042C56.5071 121.017 56.5925 121.023 56.6671 121.059C56.7417 121.094 56.7999 121.157 56.8299 121.234C56.8543 121.303 56.8548 121.378 56.8311 121.448V121.448ZM52.0782 122.977C52.0237 123.082 51.9015 123.123 51.789 123.158L49.598 123.846C49.5572 123.859 49.5143 123.864 49.4717 123.86C49.4291 123.856 49.3877 123.844 49.3498 123.824C49.3119 123.805 49.2783 123.778 49.2509 123.745C49.2234 123.712 49.2027 123.674 49.1899 123.633C49.1704 123.553 49.1823 123.468 49.2231 123.396C49.2638 123.324 49.3305 123.271 49.4094 123.246L51.5276 122.581C51.6884 122.53 51.877 122.474 52.004 122.584V122.584C52.0686 122.641 52.1083 122.72 52.1145 122.806C52.1183 122.865 52.1058 122.925 52.0782 122.977V122.977Z" fill="white"/>
<path d="M173.869 83.1617C174.131 83.9964 173.667 84.8856 172.832 85.1478V85.1478C172.752 85.1672 172.667 85.1554 172.595 85.1146C172.523 85.0738 172.469 85.0072 172.445 84.9282C172.421 84.8514 172.428 84.768 172.465 84.6966C172.503 84.6252 172.567 84.5715 172.644 84.5473V84.5473C173.147 84.3893 173.426 83.8534 173.268 83.3503V83.3503C173.244 83.2734 173.252 83.1901 173.289 83.1186C173.326 83.0472 173.39 82.9935 173.467 82.9694C173.546 82.9444 173.632 82.9504 173.706 82.9861C173.781 83.0219 173.839 83.0846 173.869 83.1617V83.1617Z" fill="white"/>
<path d="M173.022 80.9806C172.912 81.1006 172.712 81.1319 172.57 81.0515V81.0515C172.498 81.0107 172.444 80.944 172.419 80.8651L171.659 78.4427C171.634 78.3658 171.642 78.2825 171.679 78.211C171.694 78.1817 171.714 78.1554 171.738 78.1328C171.805 78.068 171.898 78.0288 171.991 78.0218V78.0218C172.038 78.0183 172.085 78.0249 172.129 78.0414C172.173 78.0578 172.213 78.0836 172.246 78.1169C172.28 78.1503 172.305 78.1904 172.321 78.2346L173.032 80.4976C173.082 80.6585 173.139 80.8471 173.028 80.9741V80.9741C173.026 80.9763 173.024 80.9784 173.022 80.9806ZM171.233 76.0741C171.153 76.0936 171.068 76.0817 170.996 76.041C170.924 76.0002 170.871 75.9335 170.846 75.8546L170.059 73.3493C170.035 73.2725 170.042 73.1891 170.08 73.1177C170.117 73.0463 170.181 72.9926 170.258 72.9684C170.337 72.9435 170.422 72.9495 170.497 72.9852C170.571 73.0209 170.63 73.0837 170.66 73.1608L171.446 75.666C171.472 75.7484 171.464 75.8377 171.424 75.9142C171.384 75.9907 171.316 76.0483 171.233 76.0741ZM169.66 71.0636C169.58 71.0831 169.495 71.0712 169.423 71.0305C169.351 70.9897 169.297 70.9231 169.272 70.8441L168.486 68.3389C168.462 68.262 168.469 68.1786 168.506 68.1072C168.544 68.0358 168.608 67.9821 168.685 67.958C168.763 67.933 168.849 67.939 168.923 67.9747C168.998 68.0104 169.056 68.0732 169.086 68.1503L169.873 70.6555C169.899 70.7379 169.891 70.8272 169.851 70.9037C169.811 70.9802 169.742 71.0378 169.66 71.0636ZM168.086 66.0531C168.006 66.0726 167.921 66.0607 167.849 66.02C167.777 65.9792 167.724 65.9126 167.699 65.8336L166.912 63.3284C166.888 63.2515 166.896 63.1682 166.933 63.0967C166.97 63.0253 167.034 62.9716 167.111 62.9475C167.19 62.9225 167.275 62.9285 167.35 62.9642C167.425 63 167.483 63.0627 167.513 63.1398L168.299 65.6451C168.312 65.6858 168.317 65.7287 168.313 65.7713C168.309 65.8139 168.297 65.8553 168.277 65.8932C168.258 65.9311 168.231 65.9647 168.198 65.9922C168.165 66.0196 168.127 66.0403 168.086 66.0531ZM166.513 61.0426C166.433 61.0621 166.348 61.0503 166.276 61.0095C166.204 60.9687 166.15 60.9021 166.126 60.8231L165.339 58.3179C165.314 58.239 165.32 58.1536 165.356 58.079C165.391 58.0045 165.454 57.9462 165.531 57.9163C165.614 57.8904 165.703 57.8983 165.779 57.9383C165.856 57.9782 165.913 58.0469 165.939 58.1293L166.726 60.6345C166.752 60.7169 166.744 60.8062 166.704 60.8827C166.664 60.9593 166.595 61.0168 166.513 61.0426ZM164.94 56.0322C164.859 56.0516 164.774 56.0398 164.702 55.999C164.631 55.9582 164.577 55.8916 164.552 55.8126L163.765 53.3074C163.741 53.2285 163.747 53.1431 163.782 53.0685C163.818 52.9939 163.881 52.9357 163.958 52.9058C164.04 52.8799 164.129 52.8878 164.206 52.9278C164.283 52.9677 164.34 53.0364 164.366 53.1188L165.153 55.6241C165.178 55.7064 165.171 55.7957 165.131 55.8722C165.091 55.9488 165.022 56.0063 164.94 56.0322ZM163.36 51.001C163.283 51.0251 163.199 51.0177 163.128 50.9804C163.057 50.9431 163.003 50.879 162.979 50.8021L162.192 48.2969C162.167 48.218 162.173 48.1326 162.209 48.058C162.245 47.9835 162.307 47.9253 162.384 47.8953C162.425 47.8825 162.468 47.8778 162.511 47.8816C162.553 47.8854 162.595 47.8975 162.633 47.9173C162.67 47.9371 162.704 47.9641 162.732 47.9969C162.759 48.0297 162.78 48.0675 162.792 48.1083L163.579 50.6136C163.599 50.6939 163.587 50.7787 163.546 50.8507C163.505 50.9226 163.439 50.9764 163.36 51.001ZM161.9 45.9574C161.829 45.993 161.747 46.0102 161.668 46.0032V46.0032C161.629 45.9997 161.59 45.9884 161.555 45.9699C161.519 45.9515 161.488 45.9262 161.462 45.8956C161.437 45.865 161.417 45.8297 161.405 45.7916L160.606 43.245C160.581 43.1661 160.587 43.0807 160.622 43.0061C160.658 42.9316 160.721 42.8734 160.798 42.8434C160.841 42.8197 160.888 42.806 160.937 42.8032C160.986 42.8003 161.034 42.8085 161.08 42.8271C161.125 42.8457 161.165 42.8742 161.198 42.9105C161.23 42.9468 161.254 42.99 161.268 43.0369L162.055 45.5422C162.074 45.5891 162.082 45.6399 162.079 45.6906C162.075 45.7412 162.059 45.7903 162.033 45.8339C162.007 45.8774 161.971 45.9143 161.928 45.9415C161.919 45.9473 161.91 45.9526 161.9 45.9574ZM160.229 41.0327C160.22 41.0036 160.189 40.9879 160.159 40.9916C160.098 40.9991 160.036 40.9881 159.981 40.9594C159.91 40.9221 159.856 40.858 159.832 40.7811L159.045 38.2759C159.02 38.197 159.026 38.1117 159.062 38.0371C159.098 37.9625 159.16 37.9043 159.238 37.8743C159.32 37.8484 159.409 37.8563 159.486 37.8963C159.562 37.9362 159.62 38.005 159.646 38.0873L160.387 40.4468C160.417 40.5435 160.472 40.6345 160.483 40.7353V40.7353C160.488 40.7862 160.482 40.8377 160.463 40.8855C160.445 40.9333 160.416 40.9761 160.378 41.0105C160.353 41.033 160.325 41.0514 160.295 41.0653C160.268 41.0777 160.238 41.061 160.229 41.0327V41.0327ZM158.639 35.9695C158.562 35.9936 158.479 35.9862 158.408 35.9489C158.336 35.9117 158.283 35.8475 158.258 35.7706L157.472 33.2654C157.447 33.1865 157.453 33.1012 157.489 33.0266C157.524 32.952 157.587 32.8938 157.664 32.8638C157.746 32.8379 157.836 32.8458 157.912 32.8858C157.989 32.9258 158.046 32.9945 158.072 33.0768L158.859 35.5821C158.878 35.6625 158.867 35.7472 158.826 35.8192C158.785 35.8911 158.718 35.9449 158.639 35.9695ZM157.066 30.959C156.989 30.9831 156.906 30.9757 156.834 30.9384C156.763 30.9012 156.709 30.837 156.685 30.7602L155.898 28.2549C155.873 28.1761 155.879 28.0907 155.915 28.0161C155.951 27.9415 156.014 27.8833 156.091 27.8533C156.173 27.8274 156.262 27.8354 156.339 27.8753C156.415 27.9153 156.473 27.984 156.499 28.0663L157.24 30.426C157.283 30.5638 157.328 30.7215 157.242 30.8379V30.8379C157.199 30.8969 157.137 30.9396 157.066 30.959Z" fill="white"/>
<path d="M155.625 25.9048C155.545 25.9524 155.446 25.9733 155.354 25.9586C155.322 25.9534 155.291 25.9432 155.261 25.9279C155.19 25.8906 155.136 25.8264 155.112 25.7496V25.7496C154.954 25.2465 154.418 24.9667 153.915 25.1246V25.1246C153.838 25.1488 153.755 25.1414 153.683 25.1041C153.612 25.0668 153.558 25.0027 153.534 24.9258C153.509 24.847 153.515 24.7616 153.551 24.687C153.587 24.6124 153.649 24.5542 153.726 24.5242L153.788 24.5047C154.623 24.2426 155.512 24.7068 155.775 25.5415V25.5415C155.787 25.587 155.789 25.6345 155.78 25.6808C155.772 25.7272 155.754 25.7712 155.727 25.8098C155.701 25.8485 155.666 25.8809 155.625 25.9048V25.9048Z" fill="white"/>
<path d="M151.702 25.8376C151.611 25.8803 151.504 25.8811 151.408 25.9113L149.276 26.5809C149.199 26.605 149.116 26.5976 149.045 26.5603C148.973 26.5231 148.919 26.4589 148.895 26.382C148.87 26.3032 148.876 26.2178 148.912 26.1432C148.948 26.0686 149.011 26.0104 149.088 25.9804L151.469 25.2327C151.549 25.2133 151.634 25.2251 151.706 25.2659C151.778 25.3067 151.831 25.3733 151.856 25.4523C151.875 25.4998 151.881 25.5513 151.874 25.6019C151.868 25.6525 151.848 25.7006 151.818 25.7418C151.788 25.783 151.748 25.816 151.702 25.8376V25.8376ZM146.946 27.3339C146.862 27.3673 146.768 27.3685 146.682 27.3956L144.452 28.0958C144.373 28.1207 144.288 28.1147 144.213 28.079C144.139 28.0433 144.08 27.9805 144.05 27.9034C144.038 27.8627 144.033 27.8198 144.037 27.7772C144.041 27.7346 144.053 27.6932 144.072 27.6553C144.092 27.6174 144.119 27.5838 144.152 27.5563C144.185 27.5289 144.223 27.5082 144.263 27.4954L146.459 26.8059C146.568 26.7716 146.67 26.7058 146.784 26.6971V26.6971C146.842 26.6927 146.9 26.7038 146.952 26.7292C147.004 26.7545 147.048 26.7933 147.08 26.8415C147.112 26.8897 147.131 26.9455 147.134 27.0033C147.141 27.0485 147.138 27.0949 147.125 27.1388C147.112 27.1827 147.089 27.223 147.058 27.2568C147.027 27.2906 146.989 27.3169 146.946 27.3339V27.3339ZM142.071 28.8435L139.711 29.5847C139.632 29.6096 139.546 29.6037 139.472 29.5679C139.397 29.5322 139.339 29.4694 139.309 29.3924C139.283 29.31 139.291 29.2207 139.331 29.1442C139.371 29.0676 139.44 29.0101 139.522 28.9843L141.882 28.2431C141.965 28.2172 142.054 28.2251 142.131 28.2651C142.207 28.305 142.265 28.3737 142.291 28.4561C142.31 28.5365 142.298 28.6213 142.257 28.6932C142.217 28.7652 142.15 28.8189 142.071 28.8435ZM137.33 30.3324L134.969 31.0736C134.89 31.0986 134.805 31.0926 134.731 31.0568C134.656 31.0211 134.598 30.9583 134.568 30.8813C134.542 30.7989 134.55 30.7096 134.59 30.6331C134.63 30.5566 134.698 30.499 134.781 30.4732L137.141 29.732C137.223 29.7061 137.313 29.714 137.389 29.754C137.466 29.7939 137.523 29.8626 137.549 29.945C137.569 30.0254 137.557 30.1102 137.516 30.1821C137.475 30.2541 137.409 30.3078 137.33 30.3324ZM132.588 31.8213L130.228 32.5625C130.151 32.5866 130.068 32.5793 129.996 32.542C129.925 32.5047 129.871 32.4405 129.847 32.3637C129.822 32.2848 129.828 32.1994 129.864 32.1248C129.9 32.0502 129.962 31.9921 130.039 31.9621L132.4 31.2209C132.482 31.195 132.571 31.2029 132.648 31.2429C132.724 31.2828 132.782 31.3516 132.808 31.4339C132.827 31.5143 132.815 31.5991 132.775 31.671C132.734 31.743 132.667 31.7967 132.588 31.8213ZM127.868 33.3037L125.487 34.0514C125.41 34.0756 125.326 34.0682 125.255 34.0309C125.184 33.9936 125.13 33.9295 125.106 33.8526C125.081 33.7737 125.087 33.6883 125.123 33.6137C125.158 33.5392 125.221 33.481 125.298 33.451L127.679 32.7033C127.76 32.6838 127.844 32.6957 127.916 32.7364C127.988 32.7772 128.042 32.8439 128.067 32.9228C128.091 32.9997 128.083 33.083 128.046 33.1545C128.009 33.2259 127.945 33.2796 127.868 33.3037ZM123.126 34.7926L120.745 35.5403C120.668 35.5645 120.585 35.5571 120.514 35.5198C120.442 35.4825 120.389 35.4184 120.364 35.3415C120.339 35.2626 120.345 35.1772 120.381 35.1027C120.417 35.0281 120.48 34.9699 120.557 34.9399L122.938 34.1922C123.018 34.1727 123.103 34.1846 123.175 34.2254C123.247 34.2661 123.301 34.3328 123.325 34.4117C123.349 34.4886 123.342 34.5719 123.305 34.6434C123.267 34.7148 123.203 34.7685 123.126 34.7926ZM118.385 36.2815L116.025 37.0227C115.946 37.0477 115.86 37.0417 115.786 37.006C115.711 36.9702 115.653 36.9075 115.623 36.8304C115.597 36.748 115.605 36.6587 115.645 36.5822C115.685 36.5057 115.754 36.4482 115.836 36.4223L118.196 35.6811C118.279 35.6552 118.368 35.6631 118.445 35.7031C118.521 35.743 118.579 35.8118 118.605 35.8941C118.624 35.9745 118.612 36.0593 118.571 36.1312C118.531 36.2032 118.464 36.2569 118.385 36.2815ZM113.644 37.7704L111.283 38.5116C111.205 38.5366 111.119 38.5306 111.045 38.4949C110.97 38.4592 110.912 38.3964 110.882 38.3193C110.856 38.2369 110.864 38.1477 110.904 38.0711C110.944 37.9946 111.012 37.9371 111.095 37.9112L113.455 37.17C113.537 37.1441 113.627 37.152 113.703 37.192C113.78 37.2319 113.837 37.3007 113.863 37.383C113.883 37.4634 113.871 37.5482 113.83 37.6201C113.789 37.6921 113.723 37.7458 113.644 37.7704ZM108.902 39.2593L106.542 40.0005C106.463 40.0255 106.378 40.0195 106.303 39.9838C106.229 39.9481 106.17 39.8853 106.14 39.8082C106.115 39.7258 106.122 39.6366 106.162 39.56C106.202 39.4835 106.271 39.426 106.353 39.4001L108.714 38.6589C108.796 38.633 108.885 38.641 108.962 38.6809C109.038 38.7209 109.096 38.7896 109.122 38.872C109.141 38.9523 109.129 39.0371 109.089 39.1091C109.048 39.181 108.981 39.2347 108.902 39.2593ZM104.182 40.7417L101.801 41.4894C101.724 41.5136 101.641 41.5062 101.569 41.4689C101.498 41.4316 101.444 41.3675 101.42 41.2906C101.395 41.2118 101.401 41.1264 101.437 41.0518C101.472 40.9772 101.535 40.919 101.612 40.889L103.993 40.1413C104.074 40.1218 104.158 40.1337 104.23 40.1745C104.302 40.2153 104.356 40.2819 104.381 40.3609C104.393 40.3989 104.397 40.439 104.393 40.4787C104.39 40.5184 104.378 40.5571 104.36 40.5925C104.342 40.6278 104.316 40.6592 104.286 40.6848C104.255 40.7105 104.22 40.7298 104.182 40.7417ZM99.4404 42.2307L97.0594 42.9784C96.9825 43.0025 96.8992 42.9951 96.8277 42.9578C96.7563 42.9205 96.7026 42.8564 96.6785 42.7795C96.6535 42.7007 96.6595 42.6153 96.6952 42.5407C96.731 42.4661 96.7937 42.4079 96.8708 42.3779L99.2518 41.6302C99.3322 41.6108 99.417 41.6226 99.4889 41.6634C99.5609 41.7042 99.6146 41.7708 99.6392 41.8498C99.6512 41.8878 99.6555 41.9279 99.652 41.9676C99.6485 42.0074 99.6371 42.046 99.6187 42.0814C99.6002 42.1168 99.575 42.1481 99.5444 42.1737C99.5138 42.1994 99.4784 42.2187 99.4404 42.2307ZM94.699 43.7196L92.3387 44.4608C92.2599 44.4857 92.1745 44.4797 92.0999 44.444C92.0253 44.4083 91.9671 44.3455 91.9372 44.2684C91.9113 44.1861 91.9192 44.0968 91.9591 44.0203C91.9991 43.9437 92.0678 43.8862 92.1502 43.8603L94.5105 43.1191C94.5929 43.0933 94.6821 43.1012 94.7587 43.1411C94.8352 43.1811 94.8927 43.2498 94.9186 43.3322C94.938 43.4126 94.9262 43.4973 94.8854 43.5693C94.8446 43.6412 94.778 43.695 94.699 43.7196ZM89.9577 45.2085L87.5974 45.9497C87.5186 45.9746 87.4332 45.9686 87.3586 45.9329C87.284 45.8972 87.2258 45.8344 87.1958 45.7573C87.1699 45.675 87.1778 45.5857 87.2178 45.5092C87.2577 45.4326 87.3265 45.3751 87.4089 45.3492L89.7692 44.608C89.8515 44.5822 89.9408 44.5901 90.0173 44.63C90.0939 44.67 90.1514 44.7387 90.1773 44.8211C90.1967 44.9015 90.1849 44.9862 90.1441 45.0582C90.1033 45.1301 90.0367 45.1839 89.9577 45.2085ZM85.2164 46.6974L82.8561 47.4386C82.7772 47.4635 82.6918 47.4575 82.6172 47.4218C82.5427 47.3861 82.4845 47.3233 82.4545 47.2462C82.4286 47.1639 82.4365 47.0746 82.4765 46.9981C82.5164 46.9215 82.5851 46.864 82.6675 46.8381L85.0278 46.0969C85.0686 46.0841 85.1115 46.0795 85.1541 46.0833C85.1967 46.087 85.2381 46.0992 85.276 46.1189C85.3139 46.1387 85.3475 46.1658 85.3749 46.1986C85.4024 46.2313 85.4231 46.2692 85.4359 46.31C85.4554 46.3904 85.4435 46.4751 85.4027 46.5471C85.362 46.619 85.2953 46.6728 85.2164 46.6974ZM80.4751 48.1863L78.1147 48.9275C78.0379 48.9516 77.9545 48.9442 77.8831 48.907C77.8117 48.8697 77.758 48.8055 77.7338 48.7286C77.7089 48.6498 77.7149 48.5644 77.7506 48.4898C77.7863 48.4152 77.8491 48.357 77.9262 48.3271L80.2865 47.5858C80.3689 47.56 80.4581 47.5679 80.5347 47.6079C80.6112 47.6478 80.6687 47.7165 80.6946 47.7989C80.714 47.8793 80.7022 47.964 80.6614 48.036C80.6206 48.108 80.554 48.1617 80.4751 48.1863ZM75.7544 49.6687L73.3734 50.4164C73.2965 50.4405 73.2132 50.4331 73.1418 50.3959C73.0704 50.3586 73.0166 50.2944 72.9925 50.2176C72.9675 50.1387 72.9735 50.0533 73.0093 49.9787C73.045 49.9041 73.1078 49.8459 73.1848 49.816L75.5659 49.0683C75.6462 49.0488 75.731 49.0607 75.803 49.1014C75.8749 49.1422 75.9287 49.2088 75.9533 49.2878C75.9652 49.3259 75.9695 49.3659 75.966 49.4057C75.9625 49.4454 75.9512 49.4841 75.9327 49.5194C75.9142 49.5548 75.889 49.5862 75.8584 49.6118C75.8278 49.6374 75.7925 49.6567 75.7544 49.6687ZM71.0131 51.1576L68.6321 51.9053C68.5552 51.9294 68.4719 51.9221 68.4004 51.8848C68.329 51.8475 68.2753 51.7833 68.2512 51.7065C68.2262 51.6276 68.2322 51.5422 68.2679 51.4676C68.3037 51.393 68.3664 51.3348 68.4435 51.3049L70.8245 50.5572C70.9049 50.5377 70.9897 50.5496 71.0616 50.5903C71.1336 50.6311 71.1873 50.6978 71.2119 50.7767C71.2239 50.8148 71.2282 50.8548 71.2247 50.8946C71.2212 50.9343 71.2098 50.973 71.1914 51.0083C71.1729 51.0437 71.1477 51.0751 71.1171 51.1007C71.0865 51.1263 71.0511 51.1456 71.0131 51.1576ZM66.2717 52.6465L63.9114 53.3877C63.8326 53.4127 63.7472 53.4067 63.6726 53.3709C63.598 53.3352 63.5398 53.2725 63.5098 53.1954C63.497 53.1546 63.4924 53.1117 63.4962 53.0691C63.4999 53.0265 63.5121 52.9851 63.5318 52.9472C63.5516 52.9093 63.5787 52.8757 63.6115 52.8482C63.6442 52.8208 63.6821 52.8001 63.7229 52.7873L66.0832 52.0461C66.1656 52.0202 66.2548 52.0281 66.3314 52.0681C66.4079 52.108 66.4654 52.1767 66.4913 52.2591C66.5107 52.3395 66.4989 52.4243 66.4581 52.4962C66.4173 52.5682 66.3507 52.6219 66.2717 52.6465ZM61.5304 54.1354L59.1701 54.8766C59.0912 54.9016 59.0059 54.8956 58.9313 54.8599C58.8567 54.8241 58.7985 54.7614 58.7685 54.6843C58.7426 54.6019 58.7505 54.5126 58.7905 54.4361C58.8304 54.3596 58.8992 54.302 58.9815 54.2762L61.3418 53.535C61.4242 53.5091 61.5135 53.517 61.59 53.557C61.6665 53.5969 61.7241 53.6657 61.75 53.748C61.7694 53.8284 61.7576 53.9132 61.7168 53.9851C61.676 54.0571 61.6094 54.1108 61.5304 54.1354ZM56.7891 55.6243L54.4288 56.3655C54.3519 56.3897 54.2686 56.3823 54.1971 56.345C54.1257 56.3077 54.072 56.2436 54.0479 56.1667C54.0229 56.0878 54.0289 56.0024 54.0646 55.9278C54.1004 55.8533 54.1631 55.7951 54.2402 55.7651L56.6005 55.0239C56.6413 55.0111 56.6842 55.0064 56.7268 55.0102C56.7694 55.014 56.8108 55.0261 56.8487 55.0459C56.8866 55.0657 56.9202 55.0927 56.9477 55.1255C56.9751 55.1583 56.9958 55.1961 57.0086 55.2369C57.0281 55.3173 57.0162 55.4021 56.9754 55.474C56.9347 55.546 56.868 55.5997 56.7891 55.6243ZM52.0684 57.1067L49.6874 57.8544C49.6105 57.8786 49.5272 57.8712 49.4558 57.8339C49.3844 57.7966 49.3307 57.7325 49.3065 57.6556C49.2816 57.5767 49.2876 57.4914 49.3233 57.4168C49.359 57.3422 49.4218 57.284 49.4989 57.254L51.8799 56.5063C51.9603 56.4868 52.045 56.4987 52.117 56.5395C52.1889 56.5802 52.2427 56.6469 52.2673 56.7258C52.2914 56.8027 52.284 56.886 52.2468 56.9575C52.2095 57.0289 52.1453 57.0826 52.0684 57.1067ZM47.3271 58.5956L44.9461 59.3433C44.8692 59.3675 44.7859 59.3601 44.7145 59.3228C44.643 59.2855 44.5893 59.2214 44.5652 59.1445C44.5402 59.0657 44.5462 58.9803 44.582 58.9057C44.6177 58.8311 44.6805 58.7729 44.7575 58.7429L47.1386 57.9952C47.2189 57.9757 47.3037 57.9876 47.3757 58.0284C47.4476 58.0691 47.5013 58.1358 47.5259 58.2147C47.5379 58.2528 47.5422 58.2929 47.5387 58.3326C47.5352 58.3723 47.5239 58.411 47.5054 58.4464C47.4869 58.4817 47.4617 58.5131 47.4311 58.5387C47.4005 58.5643 47.3652 58.5837 47.3271 58.5956ZM42.5858 60.0845L40.2255 60.8257C40.1466 60.8507 40.0612 60.8447 39.9866 60.809C39.912 60.7733 39.8538 60.7105 39.8239 60.6334C39.798 60.551 39.8059 60.4618 39.8459 60.3852C39.8858 60.3087 39.9545 60.2512 40.0369 60.2253L42.3972 59.4841C42.4796 59.4582 42.5689 59.4662 42.6454 59.5061C42.7219 59.5461 42.7795 59.6148 42.8053 59.6971C42.8248 59.7775 42.8129 59.8623 42.7721 59.9343C42.7314 60.0062 42.6647 60.0599 42.5858 60.0845ZM37.9722 61.4152C37.9236 61.5436 37.7781 61.5943 37.6471 61.6354L35.4013 62.3407C35.3225 62.3656 35.2371 62.3596 35.1625 62.3239C35.0879 62.2882 35.0297 62.2254 34.9997 62.1483C34.9738 62.066 34.9818 61.9767 35.0217 61.9001C35.0617 61.8236 35.1304 61.7661 35.2128 61.7402L37.5731 60.999C37.6554 60.9732 37.7447 60.9811 37.8212 61.021C37.8978 61.061 37.9553 61.1297 37.9812 61.2121C38 61.279 37.9968 61.3502 37.9722 61.4152V61.4152ZM33.223 62.9346C33.1685 63.039 33.0463 63.0802 32.9338 63.1155L30.7428 63.8036C30.6639 63.8285 30.5785 63.8225 30.504 63.7868C30.4294 63.7511 30.3712 63.6883 30.3412 63.6112C30.3284 63.5704 30.3237 63.5275 30.3275 63.4849C30.3313 63.4424 30.3434 63.4009 30.3632 63.363C30.383 63.3252 30.41 63.2915 30.4428 63.2641C30.4756 63.2366 30.5135 63.2159 30.5542 63.2031L32.6724 62.538C32.8332 62.4875 33.0218 62.4307 33.1488 62.5417V62.5417C33.2134 62.598 33.2531 62.6776 33.2593 62.7631C33.2631 62.8225 33.2506 62.8818 33.223 62.9346V62.9346Z" fill="white"/>
<path d="M27.4971 66.1424C27.4202 66.1665 27.3369 66.1591 27.2655 66.1219C27.1941 66.0846 27.1404 66.0204 27.1162 65.9436V65.9436C26.8541 65.1088 27.3183 64.2196 28.153 63.9575V63.9575C28.2334 63.938 28.3182 63.9499 28.3901 63.9907C28.4621 64.0314 28.5158 64.0981 28.5404 64.177C28.5646 64.2539 28.5572 64.3372 28.5199 64.4087C28.4826 64.4801 28.4185 64.5338 28.3416 64.5579V64.5579C27.8385 64.7159 27.5587 65.2519 27.7167 65.755V65.755C27.7361 65.8354 27.7243 65.9202 27.6835 65.9921C27.6427 66.0641 27.5761 66.1178 27.4971 66.1424Z" fill="white"/>
<path d="M44.8121 121.278C44.7317 121.298 44.6469 121.286 44.575 121.245C44.503 121.204 44.4493 121.138 44.4247 121.059L43.664 118.636C43.6398 118.559 43.6472 118.476 43.6845 118.405C43.7218 118.333 43.7859 118.279 43.8628 118.255C43.9417 118.23 44.0271 118.236 44.1017 118.272C44.1762 118.308 44.2344 118.371 44.2644 118.448L44.9859 120.745C45.0292 120.883 45.0737 121.041 44.9881 121.157V121.157C44.9447 121.216 44.8827 121.259 44.8121 121.278ZM43.2387 116.268C43.1583 116.287 43.0735 116.275 43.0016 116.235C42.9296 116.194 42.8759 116.127 42.8513 116.048L42.0646 113.543C42.0404 113.466 42.0478 113.383 42.0851 113.311C42.1224 113.24 42.1865 113.186 42.2634 113.162C42.3422 113.137 42.4276 113.143 42.5022 113.179C42.5768 113.214 42.635 113.277 42.665 113.354L43.4517 115.86C43.4776 115.942 43.4696 116.031 43.4297 116.108C43.3897 116.184 43.321 116.242 43.2387 116.268ZM41.6652 111.257C41.5848 111.277 41.5001 111.265 41.4281 111.224C41.3562 111.183 41.3024 111.117 41.2778 111.038L40.5566 108.741C40.513 108.602 40.4563 108.446 40.5333 108.323V108.323C40.5722 108.26 40.6325 108.214 40.703 108.193C40.7818 108.168 40.8672 108.174 40.9418 108.21C41.0164 108.245 41.0746 108.308 41.1046 108.385L41.8913 110.891C41.9047 110.969 41.8892 111.049 41.8476 111.117C41.806 111.184 41.7411 111.234 41.6652 111.257ZM40.0918 106.247C40.0114 106.266 39.9266 106.254 39.8547 106.214C39.7827 106.173 39.729 106.106 39.7044 106.027L38.9177 103.522C38.8935 103.445 38.9009 103.362 38.9382 103.29C38.9755 103.219 39.0396 103.165 39.1165 103.141C39.1954 103.116 39.2808 103.122 39.3554 103.158C39.4299 103.194 39.4881 103.256 39.5181 103.333L40.3048 105.839C40.3176 105.879 40.3223 105.922 40.3185 105.965C40.3147 106.007 40.3026 106.049 40.2828 106.087C40.263 106.125 40.236 106.158 40.2032 106.186C40.1704 106.213 40.1326 106.234 40.0918 106.247ZM38.5184 101.236C38.438 101.256 38.3532 101.244 38.2813 101.203C38.2093 101.162 38.1556 101.096 38.131 101.017L37.3443 98.5114C37.3193 98.4326 37.3253 98.3472 37.361 98.2726C37.3968 98.198 37.4595 98.1398 37.5366 98.1098C37.619 98.084 37.7082 98.0919 37.7848 98.1318C37.8613 98.1718 37.9188 98.2405 37.9447 98.3229L38.7314 100.828C38.7573 100.91 38.7494 101 38.7094 101.076C38.6694 101.153 38.6007 101.21 38.5184 101.236ZM36.9449 96.2257C36.8646 96.2452 36.7798 96.2333 36.7078 96.1926C36.6359 96.1518 36.5821 96.0851 36.5575 96.0062L35.7708 93.5009C35.7459 93.4221 35.7519 93.3367 35.7876 93.2621C35.8233 93.1875 35.8861 93.1293 35.9632 93.0993C36.0455 93.0735 36.1348 93.0814 36.2113 93.1214C36.2879 93.1613 36.3454 93.23 36.3713 93.3124L37.158 95.8176C37.1838 95.9 37.1759 95.9893 37.136 96.0658C37.096 96.1423 37.0273 96.1999 36.9449 96.2257ZM35.365 91.1945C35.2881 91.2187 35.2048 91.2113 35.1334 91.174C35.0619 91.1367 35.0083 91.0726 34.9841 90.9957L34.1974 88.4904C34.1724 88.4116 34.1784 88.3262 34.2142 88.2516C34.2499 88.177 34.3127 88.1188 34.3897 88.0889C34.4305 88.076 34.4734 88.0714 34.516 88.0752C34.5586 88.0789 34.6 88.0911 34.6379 88.1108C34.6758 88.1306 34.7094 88.1577 34.7369 88.1905C34.7643 88.2232 34.785 88.2611 34.7978 88.3019L35.5845 90.8071C35.604 90.8875 35.5921 90.9723 35.5514 91.0442C35.5106 91.1162 35.444 91.1699 35.365 91.1945ZM33.7916 86.184C33.7535 86.196 33.7135 86.2003 33.6737 86.1968C33.634 86.1933 33.5953 86.182 33.56 86.1635C33.5246 86.145 33.4932 86.1198 33.4676 86.0892C33.442 86.0586 33.4226 86.0233 33.4107 85.9852L32.611 83.4385C32.586 83.3597 32.592 83.2743 32.6277 83.1997C32.6635 83.1251 32.7262 83.0669 32.8033 83.0369C32.8441 83.0241 32.887 83.0195 32.9296 83.0233C32.9722 83.027 33.0136 83.0392 33.0515 83.059C33.0894 83.0787 33.123 83.1058 33.1504 83.1386C33.1779 83.1713 33.1986 83.2092 33.2114 83.25L33.9981 85.7552C34.0143 85.7968 34.0217 85.8413 34.02 85.8859C34.0183 85.9305 34.0074 85.9743 33.988 86.0145C33.9686 86.0547 33.9412 86.0905 33.9074 86.1197C33.8736 86.1489 33.8342 86.1708 33.7916 86.184ZM32.2506 81.2771C32.1738 81.3012 32.0905 81.2938 32.019 81.2565C31.9476 81.2192 31.8939 81.1551 31.8698 81.0782L31.0505 78.4695C31.0256 78.3906 31.0316 78.3052 31.0673 78.2306C31.103 78.156 31.1658 78.0978 31.2429 78.0679C31.3252 78.042 31.4145 78.0499 31.491 78.0899C31.5676 78.1298 31.6251 78.1985 31.651 78.2809L32.3919 80.6403C32.4223 80.7371 32.4775 80.828 32.4882 80.9289V80.9289C32.4936 80.9798 32.4869 81.0312 32.4687 81.079C32.4505 81.1269 32.4212 81.1697 32.3833 81.2041C32.3455 81.2385 32.3 81.2635 32.2506 81.2771ZM30.661 76.215C30.67 76.2435 30.6541 76.2743 30.6245 76.2781C30.5634 76.2859 30.5009 76.2749 30.4456 76.246C30.3742 76.2087 30.3205 76.1446 30.2963 76.0677L29.5192 73.593C29.4912 73.5039 29.4441 73.4186 29.4371 73.3254V73.3254C29.4336 73.2785 29.4403 73.2314 29.4567 73.1873C29.4731 73.1432 29.4989 73.1032 29.5323 73.0701C29.5656 73.0369 29.6058 73.0114 29.6499 72.9953C29.7323 72.9694 29.8216 72.9773 29.8981 73.0173C29.9746 73.0572 30.0322 73.1259 30.058 73.2083L30.8447 75.7135C30.8645 75.7558 30.875 75.8018 30.8755 75.8485C30.8759 75.8951 30.8663 75.9413 30.8474 75.984C30.8284 76.0266 30.8005 76.0647 30.7655 76.0956C30.7442 76.1144 30.7206 76.1303 30.6953 76.1429C30.6684 76.1563 30.652 76.1864 30.661 76.215V76.215ZM29.0878 71.2053C29.0966 71.2333 29.081 71.2637 29.0518 71.2675C28.9905 71.2755 28.9277 71.2645 28.8722 71.2355C28.8007 71.1983 28.747 71.1341 28.7229 71.0572L27.9037 68.4485C27.8787 68.3696 27.8847 68.2842 27.9204 68.2096C27.9562 68.135 28.0189 68.0769 28.096 68.0469C28.1784 68.021 28.2676 68.0289 28.3442 68.0689C28.4207 68.1088 28.4782 68.1775 28.5041 68.2599L29.2451 70.6196C29.2884 70.7574 29.3329 70.915 29.2473 71.0314V71.0314C29.2149 71.0755 29.1721 71.1105 29.123 71.1335C29.0957 71.1463 29.0788 71.1765 29.0878 71.2053V71.2053Z" fill="white"/>
<path d="M89.2639 45.0971C89.5709 46.0748 90.6124 46.6185 91.59 46.3115C92.5677 46.0045 93.1114 44.963 92.8044 43.9853C92.4973 43.0077 91.4559 42.464 90.4782 42.771C89.5006 43.078 88.9569 44.1195 89.2639 45.0971Z" fill="white"/>
<path d="M108.113 105.119C108.42 106.097 109.461 106.64 110.439 106.333C111.416 106.026 111.96 104.985 111.653 104.007C111.346 103.029 110.305 102.486 109.327 102.793C108.349 103.1 107.806 104.141 108.113 105.119Z" fill="white"/>
<path d="M163.332 57.1399C163.639 58.1175 164.681 58.6612 165.658 58.3542C166.636 58.0472 167.18 57.0057 166.873 56.028C166.566 55.0504 165.524 54.5067 164.547 54.8137C163.569 55.1207 163.025 56.1622 163.332 57.1399Z" fill="white"/>
<path d="M35.3987 97.3142C35.7057 98.2919 36.7471 98.8355 37.7248 98.5285C38.7025 98.2215 39.2462 97.18 38.9392 96.2024C38.6321 95.2247 37.5907 94.681 36.613 94.988C35.6353 95.2951 35.0917 96.3365 35.3987 97.3142Z" fill="white"/>
<path d="M25.3088 65.1806C25.6158 66.1583 26.6573 66.702 27.635 66.395C28.6127 66.088 29.1563 65.0465 28.8493 64.0688C28.5423 63.0912 27.5008 62.5475 26.5232 62.8545C25.5455 63.1615 25.0018 64.203 25.3088 65.1806Z" fill="white"/>
<path d="M44.0461 124.851C44.3532 125.828 45.3946 126.372 46.3723 126.065C47.35 125.758 47.8936 124.717 47.5866 123.739C47.2796 122.761 46.2382 122.218 45.2605 122.525C44.2828 122.832 43.7391 123.873 44.0461 124.851Z" fill="white"/>
<path d="M153.241 25.0063C153.548 25.984 154.59 26.5277 155.568 26.2206C156.545 25.9136 157.089 24.8722 156.782 23.8945C156.475 22.9168 155.433 22.3732 154.456 22.6802C153.478 22.9872 152.934 24.0286 153.241 25.0063Z" fill="white"/>
<path d="M171.98 84.6765C172.287 85.6542 173.328 86.1978 174.306 85.8908C175.284 85.5838 175.827 84.5423 175.52 83.5647C175.213 82.587 174.172 82.0433 173.194 82.3503C172.216 82.6574 171.673 83.6988 171.98 84.6765Z" fill="white"/>
<path d="M70.1637 88.5846C68.8006 88.1959 67.6442 89.643 68.3238 90.8868L69.5875 93.1995C69.8517 93.6832 70.5739 93.583 70.6966 93.0457V93.0457C70.7951 92.6142 71.3115 92.435 71.6561 92.7128L71.7418 92.7819C72.0243 93.0096 72.437 92.97 72.671 92.6927L72.8535 92.4763C73.0959 92.1891 73.0561 91.759 72.7651 91.521L72.6841 91.4548C72.3408 91.1741 72.405 90.6319 72.8043 90.4391V90.4391C73.3063 90.1968 73.243 89.4625 72.7069 89.3097L70.1637 88.5846Z" fill="white"/>
</svg>
