<svg width="50" height="50" viewBox="0 0 50 50" fill="none" xmlns="http://www.w3.org/2000/svg">
<rect width="50" height="50" rx="10" fill="#DCDFFF"/>
<g clip-path="url(#clip0_1864_638)">
<path d="M38.8088 31.4964L33.4113 36.4151C30.8725 38.7276 27.5838 40.0001 24.1513 40.0001H11.25C10.5588 40.0001 10 39.4414 10 38.7501C10 38.0589 10.5588 37.5001 11.25 37.5001H24.15C26.9588 37.5001 29.6488 36.4589 31.7263 34.5664L37.0813 29.6889C37.515 29.2539 37.6188 28.5089 37.2763 28.0339C37.0513 27.7226 36.7238 27.5351 36.3513 27.5039C35.9875 27.4801 35.6263 27.6064 35.3663 27.8664L30.0738 32.7239C29.4013 33.3589 28.4963 33.7501 27.5 33.7501H21.25C20.5588 33.7501 20 33.1914 20 32.5001C20 31.8089 20.5588 31.2501 21.25 31.2501H27.5C27.815 31.2501 28.75 31.1064 28.75 30.0001C28.75 29.3101 28.19 28.7501 27.5 28.7501H21.36C18.3563 28.7501 15.53 29.9214 13.405 32.0451L12.1575 33.3614C11.9113 33.6201 11.5813 33.7514 11.25 33.7514C10.9413 33.7514 10.6313 33.6376 10.39 33.4089C9.89 32.9326 9.86875 32.1414 10.3438 31.6414L11.615 30.3026C14.2363 27.6826 17.6888 26.2526 21.3613 26.2526H27.5013C29.0463 26.2526 30.3763 27.1926 30.95 28.5301L33.6388 26.0626C34.3775 25.3214 35.4588 24.9189 36.5525 25.0139C37.6525 25.1014 38.6563 25.6701 39.3063 26.5739C40.3613 28.0414 40.1475 30.1564 38.81 31.4976L38.8088 31.4964ZM15.0075 12.7026C14.955 11.9764 15.2225 11.2614 15.7425 10.7426C16.2613 10.2226 16.9763 9.95014 17.7038 10.0076C21.3 10.2614 23.685 11.5014 25 13.8976C26.3163 11.5014 28.7 10.2614 32.2975 10.0076C33.0363 9.94764 33.74 10.2226 34.2575 10.7426C34.7775 11.2614 35.045 11.9764 34.9925 12.7039C34.6038 18.2201 31.8925 20.8851 26.25 21.2139V22.4989C26.25 23.1901 25.6913 23.7489 25 23.7489C24.3088 23.7489 23.75 23.1901 23.75 22.4989V21.2139C18.1075 20.8839 15.3963 18.2201 15.0075 12.7026ZM26.29 18.7101C30.4913 18.4301 32.2075 16.6639 32.5 12.5276C28.3388 12.7951 26.57 14.5089 26.29 18.7101ZM17.5263 12.5001C17.7938 16.6614 19.5075 18.4301 23.7088 18.7101C23.4288 14.5089 21.6625 12.7926 17.5263 12.5001Z" fill="#8992FA"/>
</g>
<defs>
<clipPath id="clip0_1864_638">
<rect width="30" height="30" fill="white" transform="translate(10 10)"/>
</clipPath>
</defs>
</svg>
