<svg width="50" height="50" viewBox="0 0 50 50" fill="none" xmlns="http://www.w3.org/2000/svg">
<rect width="50" height="50" rx="10" fill="#DCDFFF"/>
<g clip-path="url(#clip0_1864_636)">
<path d="M39.6347 37.8662L32.1734 30.405C34.2067 27.9182 35.2064 24.7451 34.9658 21.5419C34.7251 18.3388 33.2625 15.3506 30.8804 13.1956C28.4984 11.0406 25.3792 9.88359 22.168 9.96388C18.9568 10.0442 15.8993 11.3556 13.628 13.627C11.3566 15.8984 10.0451 18.9558 9.96485 22.167C9.88456 25.3782 11.0416 28.4974 13.1966 30.8795C15.3516 33.2615 18.3397 34.7241 21.5429 34.9648C24.7461 35.2054 27.9192 34.2058 30.4059 32.1725L37.8672 39.6337C38.103 39.8614 38.4187 39.9874 38.7464 39.9846C39.0742 39.9817 39.3877 39.8503 39.6195 39.6185C39.8512 39.3867 39.9827 39.0732 39.9855 38.7455C39.9884 38.4177 39.8624 38.102 39.6347 37.8662ZM22.5009 32.5C20.5231 32.5 18.5897 31.9135 16.9452 30.8147C15.3008 29.7159 14.019 28.1541 13.2622 26.3268C12.5053 24.4995 12.3072 22.4889 12.6931 20.5491C13.0789 18.6093 14.0314 16.8274 15.4299 15.4289C16.8284 14.0304 18.6102 13.078 20.55 12.6921C22.4899 12.3063 24.5005 12.5043 26.3278 13.2612C28.155 14.0181 29.7168 15.2998 30.8156 16.9443C31.9145 18.5888 32.5009 20.5222 32.5009 22.5C32.498 25.1512 31.4434 27.693 29.5687 29.5678C27.694 31.4425 25.1522 32.497 22.5009 32.5Z" fill="#8992FA"/>
</g>
<defs>
<clipPath id="clip0_1864_636">
<rect width="30" height="30" fill="white" transform="translate(10 10)"/>
</clipPath>
</defs>
</svg>
