<svg width="50" height="50" viewBox="0 0 50 50" fill="none" xmlns="http://www.w3.org/2000/svg">
<rect width="50" height="50" rx="10" fill="#DCDFFF"/>
<g clip-path="url(#clip0_1864_637)">
<path d="M34.9363 16.92L30.5813 12.5625C29.7704 11.7477 28.8061 11.1017 27.744 10.6619C26.682 10.222 25.5433 9.99707 24.3938 10H18.75C17.093 10.002 15.5044 10.6611 14.3328 11.8328C13.1611 13.0045 12.502 14.593 12.5 16.25V33.75C12.502 35.407 13.1611 36.9956 14.3328 38.1673C15.5044 39.3389 17.093 39.998 18.75 40H31.25C32.907 39.998 34.4956 39.3389 35.6672 38.1673C36.8389 36.9956 37.498 35.407 37.5 33.75V23.1063C37.5031 21.9568 37.2781 20.8181 36.838 19.7562C36.398 18.6944 35.7515 17.7303 34.9363 16.92ZM33.1688 18.6875C33.5505 19.0802 33.8787 19.5215 34.145 20H28.75C28.4185 20 28.1005 19.8683 27.8661 19.6339C27.6317 19.3995 27.5 19.0815 27.5 18.75V13.355C27.9787 13.6212 28.4204 13.949 28.8138 14.33L33.1688 18.6875ZM35 33.75C35 34.7446 34.6049 35.6984 33.9017 36.4017C33.1984 37.1049 32.2446 37.5 31.25 37.5H18.75C17.7554 37.5 16.8016 37.1049 16.0984 36.4017C15.3951 35.6984 15 34.7446 15 33.75V16.25C15 15.2555 15.3951 14.3016 16.0984 13.5984C16.8016 12.8951 17.7554 12.5 18.75 12.5H24.3938C24.5988 12.5 24.7975 12.54 25 12.5588V18.75C25 19.7446 25.3951 20.6984 26.0984 21.4017C26.8016 22.1049 27.7554 22.5 28.75 22.5H34.9413C34.96 22.7025 35 22.9 35 23.1063V33.75Z" fill="#8992FA"/>
</g>
<defs>
<clipPath id="clip0_1864_637">
<rect width="30" height="30" fill="white" transform="translate(10 10)"/>
</clipPath>
</defs>
</svg>
